<?xml version="1.0" standalone="no"?>
<!DOCTYPE svg PUBLIC "-//W3C//DTD SVG 20010904//EN"
 "http://www.w3.org/TR/2001/REC-SVG-20010904/DTD/svg10.dtd">
<svg version="1.0" xmlns="http://www.w3.org/2000/svg"
 width="350.000000pt" height="240.000000pt" viewBox="0 0 350.000000 240.000000"
 preserveAspectRatio="xMidYMid meet">
<metadata>
Created by potrace 1.15, written by Peter Selinger 2001-2017
</metadata>
<g transform="translate(0.000000,240.000000) scale(0.100000,-0.100000)"
fill="#000000" stroke="none">
<path d="M740 1880 c0 -7 248 -10 705 -10 457 0 705 3 705 10 0 6 -248 10
-705 10 -457 0 -705 -4 -705 -10z"/>
<path d="M3170 1811 c-138 -30 -227 -60 -324 -110 -76 -39 -216 -134 -216
-147 0 -2 144 -4 320 -4 l320 0 0 140 c0 77 -3 140 -7 139 -5 0 -46 -9 -93
-18z"/>
<path d="M740 1120 c0 -6 248 -10 705 -10 457 0 705 4 705 10 0 7 -248 10
-705 10 -457 0 -705 -3 -705 -10z"/>
<path d="M742 548 l-2 -78 708 2 707 3 -702 2 -702 3 -4 73 -3 72 -2 -77z"/>
<path d="M740 370 l0 -80 710 0 710 0 0 30 c0 20 5 30 15 30 8 0 15 5 15 10 0
6 -7 10 -15 10 -11 0 -15 11 -15 40 l0 40 -710 0 -710 0 0 -80z m1410 0 l0
-70 -700 0 -700 0 0 70 0 70 700 0 700 0 0 -70z"/>
</g>
</svg>
